# xmcd
# 
# Track frame offsets:
#     150
#     12583
#     22659
#     32652
#     45293
#     53476
#     65502
#     76460
#     86359
#     97219
#     107473
#     118135
#     129765
#     138296
#     147085
#     157334
#     165751
#     176887
#     188093
#     196182
# 
# Disc length: 2745
# 
# Revision: 0
# Processed by: cddbd v1.5.2PL0 Copyright (c) Steve Scherf et al.
# Submitted via: BonkEnc v1.0.15
# 
DISCID=f90ab714
DTITLE=Johnny Cash - The Essential
DYEAR=0
DGENRE=Country
TTITLE0=I Walk The Line
TTITLE1=Get Rhythm
TTITLE2=Hey! Porter
TTITLE3=Folsom Prison Blues
TTITLE4=Guess Things Happen That Way
TTITLE5=Goodnight, Irene
TTITLE6=Cry, Cry, Cry
TTITLE7=Ballad Of A Teenage Queen
TTITLE8=I Heard That Lonesome Whistle Blow
TTITLE9=There You Go
TTITLE10=Train Of Love
TTITLE11=So Doggone Lonesome
TTITLE12=I Forgot To Remember To Forget
TTITLE13=Katy Too
TTITLE14=Straight 'A's In Love
TTITLE15=Country Boy
TTITLE16=Don't Make Me Go
TTITLE17=Mean Eyed Cat
TTITLE18=The Wreck Of The Old '97
TTITLE19=Rock Island Line
EXTD=
EXTT0=
EXTT1=
EXTT2=
EXTT3=
EXTT4=
EXTT5=
EXTT6=
EXTT7=
EXTT8=
EXTT9=
EXTT10=
EXTT11=
EXTT12=
EXTT13=
EXTT14=
EXTT15=
EXTT16=
EXTT17=
EXTT18=
EXTT19=
PLAYORDER=
